<?xml version="1.0" standalone="no"?>
<!DOCTYPE svg PUBLIC "-//W3C//DTD SVG 20010904//EN"
 "http://www.w3.org/TR/2001/REC-SVG-20010904/DTD/svg10.dtd">
<svg version="1.0" xmlns="http://www.w3.org/2000/svg"
 width="600.000000pt" height="547.000000pt" viewBox="0 0 600.000000 547.000000"
 preserveAspectRatio="xMidYMid meet">
<g transform="translate(0.000000,547.000000) scale(0.100000,-0.100000)"
fill="#000000" stroke="none">
<path d="M0 5453 c0 -10 4 -14 8 -8 4 6 11 13 16 18 5 4 2 7 -7 7 -10 0 -17
-8 -17 -17z"/>
<path d="M5976 5463 c5 -5 12 -12 16 -18 4 -6 8 -2 8 8 0 9 -7 17 -17 17 -9 0
-12 -3 -7 -7z"/>
<path d="M1641 4959 c-70 -21 -161 -145 -161 -221 0 -16 -9 -18 -65 -18 -76 0
-101 -19 -110 -84 -3 -23 -23 -180 -45 -351 -22 -170 -52 -398 -66 -505 l-25
-195 -44 -40 c-77 -72 -84 -115 -30 -181 l35 -43 -9 -66 c-6 -37 -11 -68 -13
-70 -2 -1 -24 -12 -50 -23 -72 -31 -114 -68 -162 -141 -112 -169 -153 -368
-110 -535 16 -64 88 -226 104 -236 5 -3 14 -30 20 -59 5 -29 19 -65 30 -81 27
-37 26 -93 -5 -305 -23 -163 -43 -266 -119 -625 -23 -110 -32 -168 -25 -176
14 -17 0 -65 -26 -90 -12 -11 -32 -47 -45 -80 -19 -52 -20 -62 -8 -84 17 -31
71 -47 192 -56 103 -7 159 4 177 37 17 32 1 56 -59 94 -118 72 -130 96 -77
149 25 25 101 172 150 289 l28 67 64 0 63 0 0 -184 c0 -113 4 -187 10 -191 17
-10 12 -85 -5 -85 -18 0 -59 -130 -50 -160 13 -42 56 -52 204 -48 165 4 204
18 199 71 -3 28 -10 36 -64 62 -33 17 -74 40 -91 53 -17 12 -36 22 -42 22 -18
0 -13 58 7 78 18 18 44 103 82 272 l21 95 37 -2 c36 -3 266 -13 1217 -53 710
-30 728 -31 754 -36 l24 -5 -24 -25 c-23 -24 -24 -33 -25 -157 -2 -138 -7
-167 -30 -167 -19 0 -166 -171 -199 -231 -32 -59 -28 -95 11 -105 36 -9 94 10
207 69 113 59 132 82 124 156 -2 25 -8 54 -12 63 -6 16 -1 18 49 18 l56 0 0
-47 c0 -82 20 -224 35 -253 13 -25 22 -29 77 -35 35 -3 428 -5 875 -3 803 3
812 3 840 24 15 11 36 36 45 55 23 44 24 149 2 195 -20 41 -70 74 -114 74 -24
0 -31 4 -26 15 8 22 -4 45 -29 55 -50 19 -48 202 2 221 32 12 39 36 18 59 -14
16 -31 20 -80 20 -61 0 -62 1 -57 25 3 20 -1 27 -22 35 -14 5 -26 16 -26 24 0
8 -3 21 -6 30 -5 14 5 16 78 16 77 0 87 2 108 25 23 24 23 26 11 127 -6 57
-23 204 -36 328 -49 448 -133 1158 -170 1425 -8 61 -29 214 -45 340 -17 127
-58 419 -91 650 -49 346 -63 423 -79 439 -18 19 -41 23 -142 25 l-48 1 0 50
c0 121 -106 220 -221 207 -60 -7 -96 -26 -142 -74 -36 -37 -77 -124 -77 -163
0 -16 -7 -20 -35 -20 l-35 0 0 53 c0 114 -99 214 -202 204 -100 -9 -198 -107
-214 -213 -6 -39 -9 -44 -33 -44 -25 0 -26 3 -26 53 -2 141 -142 241 -269 193
-76 -29 -143 -116 -160 -208 -6 -33 -11 -38 -34 -38 -26 0 -28 3 -24 33 14
122 -102 238 -223 224 -96 -10 -193 -106 -210 -208 -6 -36 -9 -39 -41 -39 -33
0 -34 1 -34 39 0 151 -144 252 -275 192 -75 -34 -127 -105 -149 -203 -5 -21
-12 -28 -29 -28 -21 0 -24 5 -25 49 -3 164 -180 255 -311 161 -46 -34 -97
-116 -106 -172 -6 -32 -11 -38 -31 -38 -22 0 -24 4 -24 50 0 138 -123 227
-259 189z m151 -31 c61 -34 106 -127 91 -185 -5 -23 -7 -23 -194 -23 l-189 0
0 28 c1 62 70 160 135 188 46 20 112 17 157 -8z m468 2 c48 -25 77 -64 91
-128 20 -85 26 -82 -191 -82 l-190 0 0 23 c0 60 81 172 140 196 41 16 108 12
150 -9z m476 1 c56 -34 87 -86 92 -152 l4 -59 -196 0 c-108 0 -196 4 -196 8 0
5 7 31 15 58 17 59 64 117 113 144 49 25 127 26 168 1z m529 -15 c45 -35 74
-96 75 -156 l0 -45 -200 0 -200 0 0 25 c0 62 66 156 135 194 48 26 143 17 190
-18z m473 7 c54 -35 95 -112 90 -169 l-3 -39 -197 -3 c-221 -3 -208 -8 -183
74 41 139 186 206 293 137z m468 8 c58 -35 88 -86 92 -157 l4 -64 -191 0 -191
0 0 28 c0 38 42 122 76 153 66 61 150 77 210 40z m500 3 c69 -33 124 -138 107
-202 -5 -22 -8 -22 -204 -22 l-199 0 0 28 c1 35 30 98 66 141 54 65 157 89
230 55z m-3226 -250 c0 -52 25 -109 67 -153 24 -24 43 -50 43 -56 0 -22 37
-47 59 -40 54 17 48 95 -7 95 -15 0 -32 -4 -38 -10 -26 -26 -98 77 -106 150
l-3 35 226 0 227 0 6 -43 c7 -55 38 -113 76 -145 16 -14 30 -32 30 -40 0 -8 9
-22 21 -33 19 -17 23 -17 47 -3 30 16 40 52 22 75 -15 17 -51 19 -67 3 -30
-30 -113 85 -113 156 l0 30 225 -3 224 -3 7 -37 c4 -20 15 -53 24 -72 18 -36
66 -90 80 -90 4 0 10 -13 13 -30 12 -57 97 -45 97 15 0 41 -40 58 -80 33 -16
-10 -23 -9 -46 12 -32 31 -60 84 -69 133 l-7 37 240 0 239 0 7 -42 c9 -54 47
-120 86 -148 17 -12 30 -30 30 -40 0 -43 82 -51 95 -10 16 49 -26 84 -71 59
-22 -11 -27 -10 -55 17 -37 34 -68 97 -69 137 l0 27 234 0 234 0 7 -37 c9 -52
53 -131 86 -154 15 -10 30 -30 33 -43 11 -46 81 -46 92 0 4 17 0 31 -11 44
-21 23 -37 25 -65 8 -36 -23 -99 57 -115 145 l-7 38 235 -3 235 -3 6 -38 c9
-55 39 -109 80 -145 20 -17 36 -37 36 -45 0 -38 56 -49 84 -18 22 25 13 58
-20 73 -20 9 -28 8 -41 -5 -15 -15 -19 -14 -46 5 -32 23 -77 109 -77 148 l0
25 234 -3 234 -3 7 -36 c10 -55 41 -109 80 -140 19 -15 35 -36 35 -45 0 -10
11 -25 25 -34 23 -15 27 -15 51 0 30 21 30 62 -1 82 -17 11 -25 11 -47 -1 -26
-13 -30 -12 -58 15 -33 31 -69 102 -70 138 l0 22 254 0 c291 0 282 3 272 -82
-4 -29 -11 -89 -16 -133 -5 -44 -42 -377 -81 -740 -40 -363 -73 -661 -74 -663
-2 -2 -18 6 -36 17 -37 23 -117 28 -150 11 -15 -9 -19 -7 -19 5 0 14 76 773
99 984 5 49 4 74 -3 76 -6 2 -186 6 -401 9 -214 3 -707 11 -1095 17 -1462 22
-1722 24 -1730 14 -5 -7 -81 -576 -80 -605 0 -3 -37 -5 -83 -5 l-82 0 12 85
c7 47 29 207 48 355 89 685 82 638 105 657 15 12 39 18 76 18 52 0 54 -1 54
-26z m3524 -9 c9 -9 14 -27 11 -43 -2 -15 -7 -70 -10 -122 -43 -748 -103
-1630 -111 -1639 -6 -6 -29 27 -55 79 -12 25 -30 57 -40 71 -18 26 -18 36 36
515 30 269 68 617 84 774 17 157 33 300 36 319 2 19 -1 41 -7 48 -16 19 36 17
56 -2z m52 -245 c44 -312 139 -1007 183 -1345 41 -311 79 -636 137 -1156 49
-444 56 -529 45 -543 -10 -12 -33 -16 -98 -16 l-86 0 5 52 c4 41 11 56 33 74
61 48 25 58 -273 71 l-148 6 46 46 c42 42 70 100 70 144 0 8 6 17 14 20 8 3
17 27 21 56 5 40 11 51 25 51 24 0 57 42 70 89 6 20 13 83 16 141 5 77 11 108
22 117 12 10 14 28 9 92 -4 65 -2 83 11 93 26 22 52 90 52 138 0 101 -60 172
-196 235 -50 23 -94 47 -97 51 -2 5 3 115 13 244 26 329 56 793 75 1140 9 162
19 311 23 330 l6 35 3 -30 c2 -16 10 -77 19 -135z m-3402 84 c21 -8 21 -53 0
-61 -19 -7 -46 7 -52 26 -3 10 0 10 16 2 13 -7 23 -7 27 -2 3 5 -4 13 -16 16
-17 6 -19 9 -8 16 17 11 14 10 33 3z m480 -10 c12 -12 13 -20 5 -35 -12 -23
-50 -23 -57 0 -3 10 0 12 11 8 9 -3 19 -2 22 2 2 5 -5 11 -18 15 -18 5 -20 8
-7 16 20 13 26 13 44 -6z m480 0 c12 -12 13 -20 6 -35 -13 -23 -43 -25 -61 -2
-13 15 -11 16 14 9 32 -8 37 9 5 18 -24 7 -22 9 19 25 1 1 9 -6 17 -15z m507
-10 c11 -14 10 -19 -9 -35 -25 -19 -47 -17 -56 8 -5 12 -1 14 19 9 14 -4 25
-2 25 4 0 5 -6 10 -14 10 -8 0 -18 5 -21 10 -10 17 42 11 56 -6z m488 2 c22
-26 -10 -63 -43 -50 -8 3 -17 12 -20 20 -4 11 0 13 19 8 15 -4 25 -2 25 5 0 6
-9 11 -21 11 -11 0 -17 5 -14 10 9 14 41 12 54 -4z m489 -12 c4 -28 -24 -51
-46 -38 -29 19 -27 36 4 28 19 -5 25 -4 20 5 -4 6 -14 11 -22 11 -8 0 -14 5
-14 11 0 6 12 9 28 7 18 -2 28 -9 30 -24z m491 12 c28 -33 -27 -74 -57 -44
-20 20 -14 29 14 22 19 -5 25 -4 20 5 -4 6 -14 11 -22 11 -8 0 -12 5 -9 10 9
15 41 12 54 -4z m-2721 -310 c2 -2 -7 -100 -20 -216 l-23 -212 -215 7 c-118 4
-217 9 -219 11 -3 3 29 277 45 388 l6 39 211 -7 c116 -4 213 -9 215 -10z m452
-13 c0 -10 -9 -109 -21 -220 l-22 -203 -216 7 c-119 3 -217 7 -218 7 -1 1 9
96 22 212 14 115 25 210 25 212 0 1 97 2 215 2 198 0 215 -1 215 -17z m458 2
c3 -3 -37 -380 -43 -412 l-5 -22 -218 6 c-119 3 -217 6 -218 7 -1 0 9 91 22
201 13 110 23 207 24 215 0 13 29 15 218 12 119 -2 218 -5 220 -7z m458 -8 c1
-1 -7 -76 -17 -167 -10 -91 -18 -170 -18 -175 -1 -6 -16 -10 -33 -10 -31 0
-33 -2 -36 -40 l-3 -40 -187 3 c-103 2 -188 5 -189 6 -3 3 38 407 44 425 3 12
38 13 220 7 120 -4 218 -8 219 -9z m459 -19 c-2 -13 -11 -95 -20 -183 -8 -88
-18 -179 -21 -202 l-6 -43 -55 0 -55 0 4 43 3 42 -164 3 -164 3 6 62 c4 34 12
115 18 180 l12 117 224 0 223 0 -5 -22z m462 8 c2 -2 -7 -103 -19 -225 -21
-215 -23 -222 -42 -217 -12 3 -113 6 -225 6 l-204 0 6 58 c4 31 14 131 23 222
l16 165 222 -3 c121 -2 222 -5 223 -6z m489 -10 c2 -2 -34 -352 -41 -401 l-5
-40 -233 4 c-127 1 -232 4 -233 5 -1 1 43 438 45 445 1 3 464 -9 467 -13z
m-1119 -360 c1 -1 -25 -347 -29 -380 -3 -18 -14 -19 -193 -17 -104 1 -190 3
-191 4 -1 1 7 92 17 202 10 110 18 202 19 204 0 3 373 -9 377 -13z m-1710 -85
c-3 -25 -13 -122 -23 -214 l-18 -169 -171 7 c-93 4 -172 9 -174 11 -3 3 0 9 7
16 8 8 8 18 -2 37 -17 34 -29 101 -18 101 11 0 32 45 32 69 0 28 -34 53 -62
46 l-24 -6 10 76 9 76 220 -2 219 -2 -5 -46z m456 19 c-4 -28 -43 -393 -43
-401 0 -5 -31 -9 -70 -9 -68 0 -69 1 -61 23 5 12 5 31 0 42 -13 34 -10 43 20
50 16 3 35 13 41 20 9 11 7 15 -14 21 -15 3 -35 4 -46 1 -11 -3 -20 -1 -20 3
0 23 -43 20 -79 -4 -20 -14 -48 -26 -62 -26 -14 0 -34 -7 -45 -15 -16 -13 -17
-16 -4 -25 8 -6 25 -9 38 -7 17 3 22 1 18 -10 -3 -8 -6 -26 -6 -39 0 -23 -2
-24 -75 -24 l-76 0 5 33 c3 17 13 97 21 177 9 80 18 161 21 180 l5 35 217 -5
c185 -4 217 -7 215 -20z m454 -33 c-3 -23 -14 -120 -24 -216 l-18 -174 -164 7
c-90 3 -189 6 -220 6 l-57 0 23 198 c12 108 22 204 23 212 0 13 30 15 221 12
l222 -3 -6 -42z m227 33 l172 0 -12 -127 c-7 -71 -13 -147 -13 -170 -1 -39 1
-43 24 -43 27 0 32 -19 18 -69 l-6 -24 -215 7 c-119 3 -217 8 -218 9 -3 3 33
345 41 395 5 25 10 32 21 28 9 -3 93 -6 188 -6z m693 -42 c-3 -18 -14 -115
-24 -215 l-17 -183 -132 0 c-72 0 -172 3 -222 6 -99 8 -102 10 -86 70 6 21 8
22 175 16 93 -3 169 -3 169 -1 0 2 7 76 15 164 8 88 15 163 15 168 0 4 25 7
56 7 l56 0 -5 -32z m469 18 c1 -2 -38 -411 -41 -421 -2 -9 -440 -4 -449 6 -2
2 5 99 17 214 l21 211 226 -4 c124 -2 225 -5 226 -6z m482 -11 c2 -1 -6 -92
-18 -201 -11 -109 -20 -205 -20 -214 0 -14 -27 -15 -232 -12 -128 2 -234 5
-236 7 -1 1 6 91 18 199 11 108 20 205 20 215 0 17 11 18 233 13 127 -2 233
-6 235 -7z m-3190 -148 c-3 -27 -8 -32 -38 -38 -19 -4 -44 -19 -55 -33 -11
-14 -28 -26 -37 -26 -39 0 -65 -69 -37 -97 17 -17 -7 -53 -36 -53 -18 0 -33
14 -60 55 -21 30 -41 58 -46 61 -21 13 -8 62 27 98 47 49 86 63 161 59 34 -2
64 0 67 5 3 5 17 7 31 4 22 -4 26 -9 23 -35z m-8 -89 c0 -13 6 -35 14 -50 12
-22 12 -33 3 -53 -7 -13 -16 -25 -22 -25 -5 0 -4 -4 4 -9 10 -6 10 -13 2 -29
-11 -20 -55 -37 -71 -27 -6 4 -10 -11 -10 -33 0 -45 -9 -52 -75 -52 -67 0 -74
5 -61 45 7 24 20 38 39 44 15 6 35 24 45 40 9 17 20 31 25 31 4 0 7 5 7 10 0
6 -9 10 -19 10 -20 0 -37 32 -26 50 8 13 35 13 35 0 0 -5 7 -10 15 -10 9 0 15
9 15 23 0 29 10 44 35 50 38 9 45 7 45 -15z m655 12 c-28 -12 -47 -12 -40 0 3
6 18 10 33 9 24 0 25 -1 7 -9z m22 -61 c11 -43 10 -56 -2 -80 -9 -15 -24 -33
-35 -39 -11 -6 -20 -18 -20 -26 0 -12 -5 -14 -17 -9 -10 4 -28 10 -40 12 -17
4 -22 11 -18 27 2 11 7 42 10 69 4 31 11 47 20 47 9 0 12 -6 9 -17 -3 -10 8
-2 25 17 17 19 31 38 31 43 0 4 6 7 13 7 7 0 18 -23 24 -51z m-307 -105 c0
-21 -23 -248 -25 -252 -1 -1 -42 16 -91 39 -111 51 -252 99 -293 99 -28 0 -31
3 -31 30 0 25 4 30 23 30 31 0 67 27 67 51 0 18 8 19 175 19 155 0 175 -2 175
-16z m160 3 c10 -2 7 -9 -11 -27 -15 -14 -54 -71 -89 -128 -34 -57 -64 -101
-66 -99 -2 2 3 62 11 133 8 71 15 129 15 130 0 1 124 -7 140 -9z m-760 -64 c0
-23 -6 -36 -22 -44 -20 -11 -21 -10 -15 36 4 26 7 55 7 63 0 13 3 12 15 -4 8
-10 15 -33 15 -51z m1055 45 c-4 -22 -45 -387 -45 -408 0 -11 -68 -13 -187 -4
l-81 7 25 39 c33 53 94 242 95 293 0 29 7 48 26 68 24 25 32 27 99 27 71 0 73
-1 68 -22z m451 0 c3 -3 -5 -101 -18 -217 l-22 -211 -125 0 c-70 0 -169 3
-222 6 l-95 7 7 61 c4 33 15 130 25 215 l17 154 214 -5 c117 -3 216 -7 219
-10z m374 -5 l92 -6 -5 -31 c-3 -17 -13 -114 -23 -216 l-18 -186 -221 4 c-121
2 -221 5 -222 6 -1 1 41 399 47 434 0 5 261 2 350 -5z m548 -18 c3 -2 -6 -101
-18 -220 l-23 -216 -221 7 c-122 4 -222 7 -222 8 -1 0 8 100 20 220 l21 219
220 -7 c121 -4 221 -9 223 -11z m470 -10 c2 -1 -6 -95 -18 -208 -11 -113 -20
-211 -20 -219 0 -14 -55 -14 -326 -2 l-130 6 22 211 c13 117 23 216 23 221 1
7 441 -2 449 -9z m-2080 -15 c17 -11 32 -23 32 -28 0 -26 -57 -197 -86 -258
-38 -81 -67 -109 -127 -125 -47 -12 -152 0 -266 31 -81 23 -81 23 -81 11 0 -5
11 -12 24 -15 23 -6 24 -9 31 -153 4 -82 10 -192 14 -247 6 -92 5 -99 -14
-111 -79 -50 -401 -56 -512 -10 l-33 14 6 293 c4 161 4 290 1 287 -12 -10 -28
-582 -17 -593 5 -5 10 -20 10 -32 0 -17 -8 -24 -31 -29 -38 -9 -40 -7 -82 80
-97 200 -96 369 4 581 81 173 203 258 331 232 43 -9 69 -9 107 0 67 15 156 -7
340 -88 136 -59 177 -72 154 -49 -7 7 9 42 56 120 72 119 81 124 139 89z
m2568 6 c1 -1 -3 -34 -8 -74 -8 -66 -12 -77 -43 -107 -68 -64 -83 -143 -37
-197 61 -70 68 -68 -191 -61 -128 3 -232 6 -233 7 -1 1 44 436 45 443 1 3 465
-9 467 -11z m159 -176 c33 -16 48 -33 79 -92 47 -89 137 -179 198 -198 57 -18
121 -62 155 -107 24 -32 28 -46 28 -103 0 -44 -5 -73 -15 -84 -13 -16 -16 -14
-36 32 -44 101 -137 173 -254 197 -51 10 -56 14 -86 64 -25 41 -31 61 -27 86
10 60 -45 109 -77 70 -10 -12 -16 -13 -26 -4 -8 7 -28 9 -50 5 -26 -5 -44 -2
-69 12 -24 15 -36 17 -44 9 -8 -8 -11 -5 -11 10 0 21 41 79 70 98 43 28 112
30 165 5z m-128 -170 c12 0 25 4 28 10 4 6 16 3 32 -7 24 -16 26 -16 39 1 7
11 20 16 29 13 21 -8 19 -54 -2 -66 -10 -6 -12 -11 -6 -11 7 0 23 -21 34 -46
12 -25 36 -61 54 -80 l32 -33 -26 -25 c-57 -55 -139 -55 -125 -2 3 13 1 33 -5
45 -9 17 -8 24 9 41 11 11 20 25 20 32 0 6 -14 -3 -31 -20 -17 -18 -40 -32
-50 -32 -36 0 -87 58 -109 126 -28 83 -23 101 22 74 18 -11 43 -20 55 -20z
m-2452 -48 l40 -7 -23 -209 c-12 -116 -24 -212 -27 -214 -2 -2 -101 -1 -220 3
l-217 8 6 41 c3 22 13 107 22 189 l17 147 47 0 c34 0 57 7 81 24 30 22 44 24
134 24 55 0 118 -3 140 -6z m493 -17 c2 -2 -4 -83 -14 -179 l-18 -176 -33 0
c-30 0 -32 -3 -35 -37 l-3 -38 -160 4 c-227 6 -220 5 -218 27 12 93 43 387 43
400 0 16 18 16 217 10 120 -4 219 -9 221 -11z m-993 -13 l81 -17 -22 -183
c-12 -100 -23 -185 -26 -188 -3 -2 -30 -2 -61 2 -45 5 -56 10 -61 28 -2 11 -8
101 -12 199 -6 148 -5 177 7 176 8 0 50 -8 94 -17z m1453 2 c2 -1 -6 -94 -17
-206 -12 -112 -21 -210 -21 -218 0 -12 -12 -14 -55 -12 l-55 4 0 38 0 37 -162
7 c-90 4 -164 9 -165 10 -1 1 6 80 17 176 11 96 20 176 20 177 0 4 434 -9 438
-13z m367 -10 l101 -6 -22 -215 c-13 -118 -24 -217 -26 -219 -3 -2 -104 -1
-226 3 l-221 6 4 26 c3 14 11 96 20 181 8 85 17 173 20 195 l5 40 123 -2 c67
-2 167 -6 222 -9z m571 -17 c0 -1 -9 -96 -21 -212 l-21 -210 -49 2 c-28 1 -96
5 -151 9 -80 5 -104 3 -110 -8 -7 -9 -28 -12 -78 -10 l-69 4 6 51 c3 29 14
128 23 221 l17 169 226 -7 c124 -4 226 -8 227 -9z m357 -9 c107 -2 127 -4 126
-18 -3 -82 -31 -273 -50 -344 l-24 -89 -159 6 c-88 4 -164 11 -170 17 -5 5
-32 10 -58 10 -26 0 -48 1 -48 3 0 1 9 92 20 202 11 110 20 206 20 214 0 11
20 12 108 7 59 -3 164 -7 235 -8z m213 -100 c3 -12 -7 -30 -33 -55 -21 -21
-44 -47 -51 -58 -10 -15 -12 -16 -8 -3 3 10 8 59 12 108 l7 91 33 -32 c19 -18
36 -41 40 -51z m350 -28 c62 -27 118 -83 147 -147 29 -67 53 -231 36 -248 -5
-6 -56 -10 -117 -10 l-107 0 -5 82 c-3 45 -9 85 -14 90 -5 4 -6 -30 -3 -81 4
-66 9 -93 21 -102 12 -8 16 -29 16 -87 l0 -76 -32 -5 c-18 -3 -107 -7 -198 -8
-160 -3 -165 -2 -163 17 2 11 6 68 9 128 7 104 6 107 -14 107 -11 0 -32 4 -45
9 l-25 10 20 77 c31 124 81 204 150 240 37 19 54 19 38 -1 -10 -13 -9 -19 6
-36 16 -17 27 -20 64 -16 36 4 51 12 80 45 39 45 57 46 136 12z m-2081 -206
l61 -5 -18 -201 c-9 -110 -18 -201 -20 -203 -4 -2 -372 16 -376 19 -3 3 28
375 33 391 3 11 195 10 320 -1z m-1195 -39 c0 -13 -41 -374 -46 -402 -4 -26
-10 -33 -28 -33 -22 0 -23 4 -30 103 -4 56 -13 135 -20 175 -7 40 -9 75 -4 78
4 3 8 23 8 45 l0 39 60 0 c33 0 60 -2 60 -5z m302 -11 l157 -6 -5 -27 c-5 -31
-44 -376 -44 -394 0 -9 -49 -10 -217 -4 -120 5 -219 10 -221 12 -3 3 37 401
43 421 2 6 28 9 66 7 35 -1 135 -5 221 -9z m547 -20 c2 -2 -3 -76 -12 -166 -9
-89 -13 -166 -11 -170 3 -4 16 -8 29 -8 21 0 23 -3 18 -42 -3 -24 -7 -44 -8
-46 -2 -2 -102 0 -224 4 -217 7 -221 7 -216 28 5 22 45 379 45 403 0 12 31 13
188 7 103 -4 189 -8 191 -10z m504 -231 c-13 -120 -25 -219 -27 -220 -4 -4
-437 15 -441 19 -1 2 0 22 3 46 l4 42 172 -6 173 -7 6 69 c4 38 10 115 13 172
l7 102 57 0 56 0 -23 -217z m380 205 l109 -3 -6 -35 c-2 -19 -13 -119 -23
-222 l-17 -188 -81 5 c-44 3 -145 8 -225 11 l-146 6 12 101 c7 56 17 155 24
221 l13 118 116 -6 c64 -3 165 -7 224 -8z m647 -6 l54 -7 83 -205 c45 -113 82
-210 83 -217 0 -7 -6 -11 -12 -8 -7 2 -98 9 -203 15 -117 7 -195 16 -202 23
-10 10 -45 95 -154 371 l-20 49 159 -8 c87 -4 183 -10 212 -13z m-298 -207
c43 -110 86 -204 94 -208 13 -8 13 -11 -6 -24 -18 -13 -48 -14 -192 -8 l-170
8 5 26 c3 14 13 113 23 219 l18 193 74 -3 74 -3 80 -200z m612 178 l98 -6 -7
-70 c-3 -38 -9 -75 -12 -83 -6 -17 -166 -66 -200 -62 -22 3 -31 17 -69 113
-24 60 -44 110 -44 112 0 5 132 3 234 -4z m-2850 -55 c30 -209 39 -422 25
-568 -8 -73 -17 -147 -43 -350 -9 -65 -84 -351 -97 -366 -9 -11 -27 -14 -63
-12 l-51 3 -1 445 c0 475 -3 504 -54 640 -24 63 -46 86 -67 69 -18 -16 -17
-25 17 -143 36 -125 44 -273 17 -341 -9 -22 -27 -76 -40 -120 -48 -157 -186
-467 -226 -508 -15 -15 -24 -16 -60 -8 -23 5 -45 12 -49 15 -8 9 9 107 53 297
39 173 97 506 110 634 4 38 12 222 15 336 0 4 33 0 73 -7 125 -24 380 -14 412
17 17 16 23 10 29 -33z m2995 33 c11 -7 13 -30 8 -111 -3 -56 -7 -104 -10
-106 -3 -3 -21 -1 -41 5 -51 13 -118 -11 -154 -55 -34 -43 -48 -43 -67 2 -19
45 -19 44 3 44 10 0 61 13 114 30 l95 30 7 52 c15 121 17 126 45 109z m-3543
-106 c-1 -41 -4 -75 -7 -75 -10 0 -30 51 -36 95 -5 40 -4 44 18 48 13 2 24 5
25 6 0 0 0 -33 0 -74z m4133 -64 c-8 -133 -22 -186 -55 -207 -34 -23 -208 -13
-369 20 -66 14 -135 26 -153 26 -18 0 -47 7 -64 16 -29 15 -34 15 -65 0 -41
-20 -44 -1 -3 22 16 9 30 21 30 25 0 10 -40 -11 -67 -36 -20 -18 -23 -18 -23
-4 0 10 20 27 48 41 26 14 41 25 34 26 -18 0 -52 -18 -79 -43 -13 -11 -23 -15
-23 -9 0 17 63 61 97 68 20 4 53 -1 91 -14 55 -20 70 -20 223 -12 90 5 176 9
192 10 l27 0 0 88 0 87 83 1 82 0 -6 -105z m-3896 -68 c37 -104 48 -181 54
-349 3 -94 2 -214 -2 -268 l-7 -97 -59 3 c-48 2 -59 6 -55 18 81 228 99 292
104 357 7 106 -20 263 -63 366 -4 9 -3 17 2 17 5 0 17 -21 26 -47z m687 -108
c311 -11 968 -35 1085 -40 66 -2 253 -9 415 -15 372 -13 424 -18 410 -34 -5
-7 -28 -67 -49 -132 l-39 -119 -81 -5 c-119 -7 -125 -16 -130 -175 -1 -69 1
-138 7 -153 l10 -29 -47 4 c-25 2 -208 10 -406 18 -587 24 -1540 67 -1542 69
-1 1 2 19 7 41 20 95 40 301 42 438 l2 148 81 -5 c44 -3 150 -8 235 -11z
m2720 -25 c0 -15 -319 -18 -325 -2 -3 9 33 12 160 12 98 0 165 -4 165 -10z
m162 -20 c26 -5 85 -13 132 -16 85 -7 86 -7 85 -33 -1 -62 -5 -62 -129 -9
-136 58 -182 80 -155 73 11 -2 41 -9 67 -15z m-744 -14 c1 -2 -17 -24 -41 -49
-25 -25 -51 -56 -58 -70 -8 -14 -43 -77 -78 -139 -36 -62 -72 -126 -81 -143
-69 -123 -84 -147 -88 -137 -9 27 105 418 142 490 26 51 49 61 129 56 39 -3
73 -6 75 -8z m666 -2 c9 -9 22 -17 29 -18 6 -1 43 -17 81 -34 38 -18 73 -32
78 -32 21 0 58 -34 58 -53 0 -28 -42 -96 -80 -130 l-31 -28 -187 6 c-103 3
-236 9 -297 14 -147 12 -153 9 -253 -139 -67 -99 -165 -231 -224 -304 -43 -51
-48 -63 -48 -106 0 -49 0 -49 -37 -55 -21 -3 -45 -10 -53 -16 -34 -21 -45 -21
-86 2 -49 26 -53 40 -26 84 18 30 28 47 132 235 149 269 236 419 267 457 19
24 60 56 94 75 l61 32 218 -2 c180 -1 220 1 230 13 16 20 55 19 74 -1z m-599
-18 c-80 -37 -107 -74 -255 -341 -45 -82 -127 -228 -182 -322 -55 -95 -98
-179 -95 -186 3 -7 -5 -30 -18 -51 l-23 -38 -7 51 c-9 65 2 169 22 199 12 20
21 23 58 20 l43 -3 108 195 c215 388 253 443 329 483 17 9 39 16 50 16 12 0
-1 -10 -30 -23z m-394 -298 c-30 -108 -71 -290 -71 -315 0 -31 -2 -33 -35 -33
-51 0 -71 28 -79 111 -8 76 1 193 16 222 13 26 38 32 110 30 47 -1 62 -5 59
-15z m1019 -8 c261 -9 537 -27 551 -36 4 -2 -4 -16 -18 -30 l-26 -26 -216 16
c-119 9 -287 19 -373 22 l-156 7 -12 -44 c-16 -57 -7 -166 14 -187 8 -9 18
-13 22 -9 3 3 -1 14 -11 23 -14 14 -16 32 -13 100 1 46 8 87 13 93 12 11 718
-28 730 -41 2 -2 2 -14 -2 -26 l-5 -22 -294 0 c-189 0 -294 -4 -294 -10 0 -6
105 -10 295 -10 248 0 295 -2 295 -14 0 -8 3 -21 6 -30 6 -14 -28 -16 -329
-16 -213 0 -338 -4 -342 -10 -4 -7 110 -10 334 -10 l340 0 27 -25 c15 -14 24
-28 20 -32 -14 -14 -273 -21 -800 -22 -523 -1 -528 -1 -515 19 32 45 202 278
226 309 l26 34 126 -7 c69 -4 241 -11 381 -16z m707 -376 c3 -9 0 -20 -8 -25
-8 -5 -351 -9 -773 -9 l-759 0 23 25 23 25 744 0 c673 0 744 -2 750 -16z
m-1094 -91 c-9 -61 -9 -89 0 -135 l8 -38 -238 0 c-131 0 -243 4 -249 8 -6 4
-14 19 -17 33 -9 34 3 39 99 39 46 0 74 4 74 11 0 7 -28 9 -80 7 l-80 -3 0 44
c0 81 0 81 261 81 l229 0 -7 -47z m1040 20 c-10 -36 -10 -130 0 -165 l7 -28
-509 0 -510 0 -10 38 c-6 20 -11 53 -11 72 0 19 5 52 11 73 l10 37 510 0 509
0 -7 -27z m-1716 -163 c19 0 17 -5 -37 -72 -44 -55 -80 -74 -80 -42 0 9 -9 18
-20 21 -24 6 -26 1 24 81 l39 62 29 -25 c16 -14 36 -25 45 -25z m-2775 14 c25
-6 26 -8 16 -38 -16 -45 -27 -56 -59 -56 -36 0 -42 12 -34 67 6 40 9 44 28 39
12 -4 34 -9 49 -12z m2940 -19 c5 -47 -4 -60 -46 -60 -30 0 -35 4 -44 32 -13
42 0 53 74 62 7 0 14 -15 16 -34z m-2472 -15 l39 0 -6 -37 c-9 -57 -20 -73
-53 -73 -36 0 -50 23 -50 80 0 34 3 41 16 36 9 -3 33 -6 54 -6z m2365 0 c3 -5
-3 -10 -14 -10 -12 0 -21 5 -21 10 0 6 6 10 14 10 8 0 18 -4 21 -10z m-2876
-80 c18 0 38 9 51 22 l20 22 29 -28 c16 -15 28 -35 26 -44 -1 -9 0 -11 2 -4 6
16 6 16 59 -17 l47 -29 -38 -12 c-52 -17 -221 -8 -264 14 -43 23 -45 34 -21
91 l21 49 19 -32 c15 -24 27 -32 49 -32z m2885 43 c10 -25 -7 -35 -53 -31 -41
3 -41 3 -26 26 19 27 70 30 79 5z m168 -9 c21 -15 41 -38 44 -51 11 -41 -80
-269 -120 -302 -18 -15 -52 -7 -60 14 -3 8 -8 37 -12 64 l-6 50 37 7 c20 3 33
10 28 15 -5 5 -23 5 -41 0 -29 -9 -32 -8 -32 14 0 25 17 35 61 35 16 0 29 5
29 11 0 7 -16 8 -45 3 l-45 -6 0 59 c0 53 3 61 24 71 17 8 27 7 36 -1 9 -9 17
-6 33 15 12 15 24 27 26 27 3 1 22 -11 43 -25z m1536 -1 c2 -13 0 -23 -5 -23
-4 -1 -337 -1 -739 -2 l-731 -1 -34 26 -34 27 770 -3 770 -2 3 -22z m-3976
-53 c25 -16 36 -30 32 -40 -4 -12 -2 -12 7 -3 9 9 22 7 55 -10 24 -11 44 -24
44 -27 0 -28 -279 -44 -335 -19 -16 7 -32 14 -34 15 -5 4 30 104 36 104 3 0
14 -11 25 -25 27 -34 63 -32 96 5 15 17 29 29 32 28 3 -2 22 -14 42 -28z
m2066 12 c7 -5 10 -16 6 -27 -7 -16 -3 -17 34 -11 l42 6 0 -60 c0 -59 -1 -60
-42 -91 -64 -46 -185 -101 -234 -107 -74 -8 -70 37 14 150 l44 60 34 -33 c18
-18 37 -29 41 -25 4 4 -8 20 -26 36 l-35 27 33 42 c32 40 60 51 89 33z m901
-79 c14 -49 14 -132 0 -172 l-11 -31 -273 0 -274 0 28 63 c16 34 37 88 47 120
l18 57 227 0 228 0 10 -37z m1080 22 c38 -19 55 -63 49 -127 -4 -40 -11 -57
-32 -75 l-27 -23 -531 0 -530 0 6 23 c16 54 18 133 3 175 l-15 42 525 0 c439
0 529 -2 552 -15z m-4643 -46 c78 -10 145 -8 194 5 l25 8 -24 -21 c-19 -17
-36 -21 -100 -21 -143 0 -231 26 -231 67 0 10 8 8 29 -7 18 -15 54 -25 107
-31z m400 -24 c40 -21 236 -21 294 0 52 18 51 18 44 0 -10 -26 -74 -37 -205
-38 -111 0 -132 3 -149 18 -18 16 -27 35 -16 35 2 0 17 -7 32 -15z"/>
<path d="M3020 3939 c-25 -38 -47 -69 -50 -69 -3 0 -14 14 -23 30 -10 17 -23
30 -28 30 -11 0 -7 -9 23 -52 11 -16 23 -28 28 -28 13 0 111 148 102 154 -4 2
-28 -27 -52 -65z"/>
<path d="M4331 4042 c-37 -20 -71 -73 -71 -110 0 -41 27 -88 63 -110 62 -39
139 -21 177 41 70 114 -52 242 -169 179z m139 -27 c52 -47 45 -140 -14 -176
-50 -31 -102 -25 -142 15 -28 28 -34 42 -34 76 0 35 6 48 35 77 33 33 39 35
85 31 28 -3 59 -13 70 -23z"/>
<path d="M4388 4014 c-5 -4 -8 -26 -8 -49 0 -34 5 -45 30 -63 42 -31 61 -27
23 6 -26 21 -33 36 -35 70 -2 24 -6 40 -10 36z"/>
<path d="M3210 3699 c0 -5 35 -9 77 -9 42 0 74 2 72 4 -10 9 -149 14 -149 5z"/>
<path d="M3204 3639 c-4 -8 100 -19 177 -19 33 0 59 4 59 9 0 11 -230 20 -236
10z"/>
<path d="M3200 3570 c0 -6 45 -10 115 -10 70 0 115 4 115 10 0 6 -45 10 -115
10 -70 0 -115 -4 -115 -10z"/>
<path d="M3195 3510 c3 -5 40 -10 81 -10 43 0 74 4 74 10 0 6 -34 10 -81 10
-51 0 -78 -4 -74 -10z"/>
<path d="M3879 3495 c-23 -36 -45 -65 -48 -65 -3 0 -14 14 -24 31 -10 18 -20
29 -23 26 -6 -6 36 -87 45 -87 3 0 23 26 44 58 21 31 45 67 54 80 8 12 11 22
5 22 -5 0 -29 -29 -53 -65z"/>
<path d="M1380 3404 c0 -8 5 -12 10 -9 6 4 8 11 5 16 -9 14 -15 11 -15 -7z"/>
<path d="M2430 3131 c-9 -24 -20 -31 -53 -37 l-41 -6 28 -23 c26 -20 27 -25
18 -59 -12 -41 -10 -42 28 -20 26 16 29 16 51 0 34 -23 41 -20 34 15 -6 25 -2
36 21 60 l28 29 -26 0 c-29 0 -58 23 -58 45 0 27 -18 24 -30 -4z m24 -47 c9
-3 16 -17 16 -30 0 -19 -5 -24 -24 -24 -28 0 -42 26 -25 46 13 16 12 16 33 8z"/>
<path d="M3739 3081 c-19 -15 -21 -23 -13 -41 8 -19 6 -27 -13 -46 -13 -13
-23 -35 -23 -49 0 -21 5 -25 30 -25 17 0 30 -4 30 -10 0 -6 32 -10 75 -10 43
0 75 4 75 10 0 6 11 10 25 10 21 0 25 5 25 28 0 27 -15 52 -33 52 -4 0 -1 -10
7 -22 37 -52 1 -67 -44 -18 -29 31 -25 44 14 51 28 6 43 35 30 57 -14 22 -62
28 -69 9 -7 -15 -37 -16 -57 0 -28 22 -37 22 -59 4z m48 -21 c2 -8 -1 -22 -7
-30 -8 -13 -11 -13 -26 2 -10 9 -14 24 -10 33 7 20 40 16 43 -5z m123 5 c10
-12 10 -18 0 -30 -16 -20 -36 -19 -44 1 -6 16 9 44 24 44 4 0 13 -7 20 -15z
m-65 -45 c0 -29 -32 -41 -41 -16 -9 24 4 48 23 44 12 -2 18 -12 18 -28z m-53
-22 c6 -17 -45 -58 -71 -58 -19 0 -20 2 -10 23 23 41 72 63 81 35z m59 -31 c9
-7 21 -22 28 -34 12 -23 11 -23 -54 -23 -72 0 -78 8 -40 45 27 28 42 30 66 12z"/>
<path d="M4570 2845 c0 -8 5 -15 10 -15 6 0 10 7 10 15 0 8 -4 15 -10 15 -5 0
-10 -7 -10 -15z"/>
<path d="M4520 2831 c0 -6 5 -13 10 -16 6 -3 10 1 10 9 0 9 -4 16 -10 16 -5 0
-10 -4 -10 -9z"/>
<path d="M2415 2602 c-52 -78 -53 -78 -85 -22 -5 8 -11 12 -15 8 -8 -8 37 -78
50 -78 14 1 107 140 102 154 -2 6 -26 -22 -52 -62z"/>
<path d="M2605 2350 c3 -5 37 -10 76 -10 39 0 69 4 69 10 0 6 -32 10 -76 10
-47 0 -73 -4 -69 -10z"/>
<path d="M2600 2293 c0 -13 221 -24 235 -12 5 5 -14 9 -45 9 -30 0 -85 3 -122
7 -44 4 -68 2 -68 -4z"/>
<path d="M2595 2230 c-2 -4 48 -10 112 -14 104 -6 135 -4 122 8 -8 7 -229 13
-234 6z"/>
<path d="M2590 2172 c0 -9 149 -23 159 -15 9 7 -8 11 -81 17 -47 4 -78 3 -78
-2z"/>
<path d="M3942 2168 c-17 -17 -15 -32 6 -51 26 -24 42 -21 42 6 0 32 -32 61
-48 45z"/>
<path d="M3860 1070 c0 -6 50 -10 131 -10 84 0 128 4 124 10 -4 6 -58 10 -131
10 -76 0 -124 -4 -124 -10z"/>
<path d="M4890 1070 c0 -6 56 -10 149 -10 89 0 152 4 156 10 4 7 -48 10 -149
10 -97 0 -156 -4 -156 -10z"/>
<path d="M4520 1020 c0 -6 123 -10 350 -10 227 0 350 4 350 10 0 6 -123 10
-350 10 -227 0 -350 -4 -350 -10z"/>
<path d="M3907 820 c-4 -8 -17 -44 -30 -80 -14 -36 -37 -90 -53 -120 -38 -72
-37 -70 -26 -70 22 0 129 247 118 274 -2 7 -6 5 -9 -4z"/>
<path d="M3370 685 c13 -14 26 -23 28 -20 7 7 -29 45 -41 45 -6 0 0 -11 13
-25z"/>
<path d="M3554 700 c-20 -20 -208 -110 -230 -110 -13 0 -26 -5 -30 -12 -14
-22 63 0 148 42 91 46 136 75 127 84 -3 3 -10 1 -15 -4z"/>
<path d="M4590 730 c0 -5 11 -10 25 -10 24 0 25 -2 25 -75 l0 -75 40 26 39 26
30 -21 c48 -34 53 -29 49 49 -3 67 -2 70 20 70 12 0 22 5 22 10 0 6 -48 10
-125 10 -77 0 -125 -4 -125 -10z m165 -33 c5 -6 14 -67 10 -67 -2 0 -15 5 -28
11 -18 8 -30 8 -46 0 -20 -11 -21 -9 -21 23 0 19 6 37 13 40 11 5 68 0 72 -7z"/>
<path d="M4990 670 c0 -6 87 -10 240 -10 153 0 240 4 240 10 0 6 -87 10 -240
10 -153 0 -240 -4 -240 -10z"/>
<path d="M378 2268 c-9 -16 -13 -65 -13 -153 0 -110 4 -141 24 -203 27 -83 78
-167 139 -232 l42 -43 0 -126 c0 -89 -3 -122 -11 -114 -6 6 -12 53 -13 106 -2
84 -6 103 -34 159 -40 82 -111 154 -187 190 -66 31 -90 35 -98 15 -10 -27 15
-124 53 -203 45 -92 112 -161 194 -200 49 -23 66 -38 66 -61 0 -9 -23 -13 -80
-13 -75 0 -80 -1 -80 -21 0 -35 50 -302 62 -333 18 -44 63 -66 136 -66 73 0
115 18 136 59 13 24 66 305 66 347 0 11 -18 14 -81 14 -72 0 -80 2 -75 18 3 9
8 29 11 43 4 16 21 34 44 47 21 12 56 41 78 65 86 93 126 198 121 319 -3 64
-5 73 -23 76 -31 4 -124 -67 -165 -127 -61 -89 -92 -221 -72 -307 9 -41 -4
-134 -20 -134 -5 0 -8 58 -8 128 0 99 4 137 16 161 82 164 46 380 -88 526 -47
52 -93 85 -117 85 -6 0 -16 -10 -23 -22z m89 -33 c58 -49 119 -145 143 -222
25 -83 26 -206 1 -283 l-18 -55 -7 50 c-20 145 -58 295 -75 295 -5 0 0 -28 11
-62 23 -74 48 -208 48 -258 l0 -34 -45 44 c-92 90 -145 237 -145 402 0 169 13
187 87 123z m398 -385 c-10 -90 -32 -154 -76 -219 -37 -55 -126 -138 -136
-127 -6 6 64 173 94 224 13 24 22 46 19 49 -3 4 -8 4 -10 2 -12 -13 -86 -172
-102 -219 l-19 -55 -3 55 c-4 68 13 162 39 213 27 52 85 115 139 149 l44 28 9
-22 c5 -13 6 -48 2 -78z m-541 -16 c111 -55 195 -177 203 -294 l4 -55 -33 60
c-40 73 -98 155 -110 155 -13 0 -9 -9 21 -48 28 -35 111 -175 111 -187 0 -3
-23 6 -51 20 -98 50 -173 150 -213 284 -29 100 -20 109 68 65z m436 -474 c0
-10 -11 -85 -25 -166 -34 -193 -42 -204 -146 -204 -76 0 -111 12 -128 44 -12
22 -70 333 -64 340 2 2 85 4 183 4 169 0 180 -1 180 -18z"/>
<path d="M0 17 c0 -10 8 -17 18 -17 9 0 13 4 7 8 -5 4 -13 11 -17 16 -5 5 -8
2 -8 -7z"/>
<path d="M5982 15 c-11 -12 -10 -15 3 -15 8 0 15 7 15 15 0 18 -2 18 -18 0z"/>
</g>
</svg>
