<?xml version="1.0" standalone="no"?>
<!DOCTYPE svg PUBLIC "-//W3C//DTD SVG 20010904//EN"
 "http://www.w3.org/TR/2001/REC-SVG-20010904/DTD/svg10.dtd">
<svg version="1.0" xmlns="http://www.w3.org/2000/svg"
 width="600.000000pt" height="900.000000pt" viewBox="0 0 600.000000 900.000000"
 preserveAspectRatio="xMidYMid meet">
<g transform="translate(0.000000,900.000000) scale(0.100000,-0.100000)"
fill="#000000" stroke="none">
<path d="M980 4529 l0 -3740 118 4 c136 4 186 19 219 68 l23 34 0 3485 0 3485
1640 3 1640 2 0 -329 c0 -209 -4 -332 -10 -336 -7 -4 -10 99 -10 303 l0 308
-64 23 -63 22 -429 -161 c-479 -180 -1622 -609 -1642 -615 -10 -4 -12 -300
-10 -1470 3 -1328 2 -1465 -13 -1465 -21 0 -58 -41 -68 -76 -5 -17 -3 -47 3
-74 9 -36 18 -48 44 -61 l32 -17 0 -1175 c0 -932 2 -1176 12 -1184 7 -6 74
-31 148 -56 74 -25 297 -102 495 -170 198 -68 403 -139 455 -157 52 -18 292
-102 534 -186 l439 -153 63 26 64 25 0 360 c0 237 3 357 10 353 6 -4 10 -136
10 -363 0 -338 1 -359 20 -389 13 -21 28 -33 42 -33 13 0 32 -7 42 -15 15 -11
49 -15 133 -15 l113 0 -2 3737 -3 3738 -1992 3 -1993 2 0 -3741z m3970 -4 l0
-3725 -95 0 -95 0 0 3630 0 3630 -1790 0 -1790 0 0 -3627 0 -3628 -95 -3 -95
-3 0 3726 0 3725 1980 0 1980 0 0 -3725z m-202 -97 c1 -2075 -2 -3618 -7
-3618 -5 0 -14 7 -21 15 -7 8 -22 15 -34 15 -13 0 -28 11 -39 29 -15 26 -17
66 -17 381 0 231 3 349 10 345 7 -4 10 66 10 204 0 129 -4 212 -10 216 -14 9
-14 2875 0 2875 6 0 10 77 10 210 0 133 -4 210 -10 210 -7 0 -10 253 -10 739
0 483 3 742 10 746 6 4 10 89 10 221 0 141 -3 213 -10 209 -7 -4 -10 105 -10
320 0 307 1 328 20 365 11 22 17 40 12 40 -5 0 -16 -16 -25 -35 l-17 -35
-1643 0 -1643 0 -27 40 -26 40 1702 -3 1702 -2 5 -3555 c3 -1955 6 -3548 8
-3540 2 13 3 13 12 0 6 -10 10 1253 10 3573 l0 3587 -1744 0 -1743 0 -7 -46
c-10 -80 -7 -7124 4 -7124 7 0 11 1207 12 3568 l3 3567 2 -3569 c3 -3311 2
-3571 -14 -3588 -9 -10 -20 -18 -25 -18 -4 0 -8 1629 -8 3620 l0 3620 1773 -2
1772 -3 3 -3617z m-50 3560 c-4 -10 -358 -14 -1720 -16 -1519 -2 -1717 0
-1722 13 -5 13 189 15 1720 15 1376 0 1725 -3 1722 -12z m9 -70 c-2 -13 -4 -5
-4 17 -1 22 1 32 4 23 2 -10 2 -28 0 -40z m-3417 4 c0 -5 7 -15 15 -22 13 -11
15 -413 15 -3507 0 -3112 -2 -3497 -15 -3523 -9 -17 -22 -30 -30 -30 -13 0
-15 430 -15 3561 0 3165 2 3559 15 3545 8 -8 15 -19 15 -24z m3417 -54 c-3 -8
-6 -5 -6 6 -1 11 2 17 5 13 3 -3 4 -12 1 -19z m0 -70 c-2 -13 -4 -5 -4 17 -1
22 1 32 4 23 2 -10 2 -28 0 -40z m-237 -3445 c0 -1917 2 -3484 5 -3481 3 3 6
1572 6 3487 0 1914 1 3481 3 3481 1 0 23 -7 49 -16 l46 -16 3 -299 3 -300 -27
7 -28 6 0 -210 0 -210 28 -6 27 -6 0 -740 0 -740 -27 0 -28 0 0 -209 0 -210
25 -3 25 -3 0 -1435 0 -1435 -22 -5 c-23 -6 -23 -7 -26 -214 l-2 -209 27 6 28
6 -3 -342 c-1 -188 -4 -347 -6 -352 -2 -6 -26 -18 -53 -28 l-50 -18 -144 50
c-79 27 -292 101 -474 164 -277 97 -610 212 -1337 462 l-108 37 0 1177 0 1176
26 12 c21 10 28 9 45 -8 39 -39 89 -13 108 58 13 47 13 59 0 106 -20 74 -79
101 -116 53 -18 -23 -20 -23 -41 -6 l-22 18 2 1456 3 1456 800 301 c440 166
899 339 1020 384 121 46 223 84 228 84 4 1 7 -1568 7 -3486z m118 2649 c2
-183 2 -192 -17 -192 -10 0 -21 6 -24 13 -4 11 -3 365 2 375 0 2 9 2 19 0 15
-3 17 -22 20 -196z m33 1 c0 -216 1 -203 -11 -203 -6 0 -10 69 -10 188 0 168
4 212 17 198 3 -2 4 -84 4 -183z m-1 -963 c0 -487 -3 -740 -10 -740 -7 0 -10
253 -10 740 0 487 3 740 10 740 7 0 10 -253 10 -740z m-30 -945 c0 -186 -1
-195 -19 -195 -11 0 -23 5 -27 12 -5 7 -3 8 7 3 12 -7 12 -6 1 7 -10 13 -13
58 -10 192 3 175 3 176 25 176 l23 0 0 -195z m34 12 c-2 -215 -1 -207 -14
-207 -6 0 -10 72 -10 195 0 149 3 195 13 195 9 0 12 -42 11 -183z m-4 -1657
c0 -947 -3 -1430 -10 -1430 -7 0 -10 483 -10 1430 0 947 3 1430 10 1430 7 0
10 -483 10 -1430z m-2085 704 c43 -17 59 -123 29 -188 -21 -42 -49 -51 -75
-25 -24 24 -20 45 8 41 27 -4 46 22 45 59 -1 38 -20 62 -44 55 -30 -7 -35 24
-9 46 26 21 24 20 46 12z m-106 -29 c34 -17 41 -32 41 -91 0 -87 -72 -120
-127 -58 -39 44 -25 125 27 151 31 16 26 16 59 -2z m96 -65 c9 -28 -3 -60 -23
-60 -13 0 -17 9 -17 40 0 31 4 40 17 40 9 0 20 -9 23 -20z m2095 -2195 c2
-212 1 -245 -9 -245 -6 0 -10 77 -11 188 0 163 4 212 16 199 2 -1 4 -65 4
-142z m-32 -57 c-3 -191 -3 -193 -25 -194 -22 -1 -22 -1 -20 183 2 151 5 185
17 193 8 5 18 10 23 10 4 0 6 -87 5 -192z"/>
<path d="M1023 5920 c0 -25 2 -35 4 -22 2 12 2 32 0 45 -2 12 -4 2 -4 -23z"/>
<path d="M1023 4880 c0 -25 2 -35 4 -22 2 12 2 32 0 45 -2 12 -4 2 -4 -23z"/>
<path d="M1021 4664 c0 -11 3 -14 6 -6 3 7 2 16 -1 19 -3 4 -6 -2 -5 -13z"/>
<path d="M1023 4480 c0 -25 2 -35 4 -22 2 12 2 32 0 45 -2 12 -4 2 -4 -23z"/>
<path d="M1022 4065 c0 -16 2 -22 5 -12 2 9 2 23 0 30 -3 6 -5 -1 -5 -18z"/>
<path d="M4396 7707 c3 -10 9 -15 12 -12 3 3 0 11 -7 18 -10 9 -11 8 -5 -6z"/>
<path d="M3771 7193 l-314 -106 29 -22 29 -23 -5 -1408 -5 -1409 -22 -10 c-24
-10 -31 -25 -13 -25 6 0 21 6 33 14 17 12 79 15 297 18 254 2 275 1 278 -15 2
-9 11 -17 20 -17 13 0 14 2 4 8 -10 7 -12 316 -10 1555 2 851 1 1547 -2 1546
-3 0 -146 -48 -319 -106z m309 64 c0 -18 -9 -25 -47 -37 -27 -7 -149 -47 -273
-87 -205 -67 -271 -81 -270 -55 0 4 132 50 293 104 160 53 293 97 295 97 1 1
2 -9 2 -22z m0 -1527 l0 -1490 -275 0 -275 0 0 1404 0 1404 43 11 c23 6 143
44 267 85 124 41 228 75 233 75 4 1 7 -669 7 -1489z"/>
<path d="M4009 7113 c-13 -16 -12 -17 4 -4 9 7 17 15 17 17 0 8 -8 3 -21 -13z"/>
<path d="M3985 7082 c-7 -4 -10 -475 -10 -1377 l0 -1369 -30 -2 c-16 -1 -105
-2 -197 -3 -93 0 -168 -4 -168 -9 0 -4 24 -6 53 -5 28 1 121 2 204 3 l153 0 2
1385 c2 762 3 1385 3 1385 0 0 -4 -4 -10 -8z"/>
<path d="M3591 5944 c0 -11 3 -14 6 -6 3 7 2 16 -1 19 -3 4 -6 -2 -5 -13z"/>
<path d="M3591 5494 c0 -11 3 -14 6 -6 3 7 2 16 -1 19 -3 4 -6 -2 -5 -13z"/>
<path d="M3593 5040 c0 -25 2 -35 4 -22 2 12 2 32 0 45 -2 12 -4 2 -4 -23z"/>
<path d="M3591 4404 c0 -11 3 -14 6 -6 3 7 2 16 -1 19 -3 4 -6 -2 -5 -13z"/>
<path d="M3568 4293 c7 -3 16 -2 19 1 4 3 -2 6 -13 5 -11 0 -14 -3 -6 -6z"/>
<path d="M3460 5639 c0 -782 3 -1419 7 -1416 9 10 10 2828 1 2834 -5 2 -8
-636 -8 -1418z"/>
<path d="M4142 7025 c0 -16 2 -22 5 -12 2 9 2 23 0 30 -3 6 -5 -1 -5 -18z"/>
<path d="M2461 7026 c-9 -10 -8 -15 2 -19 8 -3 13 3 13 14 0 23 0 23 -15 5z"/>
<path d="M2903 6906 l-243 -81 0 -1317 c0 -725 4 -1318 8 -1318 5 0 17 7 28
15 29 22 464 22 464 0 0 -8 3 -15 8 -15 4 0 7 630 7 1400 0 1238 -2 1400 -15
1399 -8 -1 -124 -38 -257 -83z m257 47 c0 -14 -45 -32 -223 -89 -155 -50 -226
-68 -235 -61 -7 5 -10 12 -8 15 6 5 447 151 459 152 4 0 7 -8 7 -17z m0 -1377
l0 -1345 -220 -1 -220 -1 2 1278 3 1277 40 12 c22 7 117 37 210 67 94 31 173
56 178 56 4 1 7 -604 7 -1343z m-450 -73 c0 -706 -2 -1283 -4 -1283 -2 0 -11
-3 -20 -6 -15 -6 -16 113 -16 1295 0 1299 0 1301 20 1289 20 -13 20 -24 20
-1295z"/>
<path d="M3105 6839 c-4 -6 -5 -12 -2 -15 2 -3 7 2 10 11 7 17 1 20 -8 4z"/>
<path d="M3070 5565 l0 -1245 -155 0 c-101 0 -155 -4 -155 -10 0 -7 51 -9 158
-4 86 4 158 8 160 9 6 5 6 2495 0 2495 -5 0 -8 -560 -8 -1245z"/>
<path d="M2772 6660 c0 -14 2 -19 5 -12 2 6 2 18 0 25 -3 6 -5 1 -5 -13z"/>
<path d="M2773 5670 c0 -30 2 -43 4 -27 2 15 2 39 0 55 -2 15 -4 2 -4 -28z"/>
<path d="M2773 5005 c0 -22 2 -30 4 -17 2 12 2 30 0 40 -3 9 -5 -1 -4 -23z"/>
<path d="M2772 4700 c0 -14 2 -19 5 -12 2 6 2 18 0 25 -3 6 -5 1 -5 -13z"/>
<path d="M2772 4600 c0 -19 2 -27 5 -17 2 9 2 25 0 35 -3 9 -5 1 -5 -18z"/>
<path d="M2818 4163 c12 -2 32 -2 45 0 12 2 2 4 -23 4 -25 0 -35 -2 -22 -4z"/>
<path d="M2549 3893 c-13 -16 -12 -17 4 -4 9 7 17 15 17 17 0 8 -8 3 -21 -13z"/>
<path d="M2477 3845 c3 -8 9 -12 14 -9 12 7 11 11 -5 17 -10 4 -13 1 -9 -8z"/>
<path d="M2660 2822 l0 -853 27 14 c24 13 42 10 197 -30 94 -25 194 -50 221
-57 40 -9 51 -16 53 -34 14 -94 17 93 14 881 l-2 904 -255 14 -255 14 0 -853z
m354 818 c133 -9 156 -13 143 -26 -8 -9 -430 17 -441 27 -15 14 -32 11 -18 -3
9 -9 12 -205 12 -820 0 -795 0 -807 -20 -818 -20 -11 -20 -6 -20 819 0 650 3
831 13 835 12 6 76 3 331 -14z m-44 -34 c96 -7 178 -11 183 -9 4 2 7 -379 7
-846 0 -571 -3 -851 -10 -851 -6 0 -45 9 -88 21 -181 48 -260 68 -299 79 l-43
11 0 804 0 805 38 -1 c20 0 116 -6 212 -13z"/>
<path d="M2968 3503 c7 -3 16 -2 19 1 4 3 -2 6 -13 5 -11 0 -14 -3 -6 -6z"/>
<path d="M3077 3503 c-4 -3 -7 -342 -7 -751 0 -410 2 -743 5 -740 4 4 13 1498
9 1498 0 0 -4 -3 -7 -7z"/>
<path d="M2772 3190 c0 -19 2 -27 5 -17 2 9 2 25 0 35 -3 9 -5 1 -5 -18z"/>
<path d="M2772 2895 c0 -16 2 -22 5 -12 2 9 2 23 0 30 -3 6 -5 -1 -5 -18z"/>
<path d="M2771 2824 c0 -11 3 -14 6 -6 3 7 2 16 -1 19 -3 4 -6 -2 -5 -13z"/>
<path d="M2774 2475 c0 -49 1 -71 3 -48 2 23 2 64 0 90 -2 26 -3 8 -3 -42z"/>
<path d="M2760 2073 c0 -5 55 -22 123 -38 67 -15 139 -34 159 -41 21 -7 40 -9
43 -5 2 5 -62 25 -143 45 -81 20 -155 39 -164 42 -10 3 -18 1 -18 -3z"/>
<path d="M3460 3624 c0 -3 11 -15 25 -27 l26 -22 -1 -890 c0 -886 -1 -904 -31
-905 -3 0 -5 405 -5 901 1 495 -2 906 -6 912 -4 7 -8 -403 -8 -910 0 -508 3
-923 8 -923 4 1 18 7 31 14 21 11 33 12 70 1 25 -7 125 -34 221 -60 304 -81
290 -76 290 -96 0 -10 3 -20 8 -22 4 -3 6 443 5 991 -2 549 -6 998 -10 999 -5
1 -120 9 -258 17 -137 9 -276 18 -307 21 -32 2 -58 2 -58 -1z m295 -29 c110
-8 228 -15 263 -15 48 0 62 -3 62 -15 0 -19 7 -19 -300 1 -182 12 -259 21
-270 30 -18 18 -14 18 245 -1z m45 -45 c85 -6 183 -13 218 -16 l62 -6 0 -939
c0 -517 -4 -938 -8 -935 -5 3 -69 21 -143 40 -149 39 -268 70 -346 92 l-53 15
0 885 0 885 58 -6 c31 -3 127 -10 212 -15z"/>
<path d="M3618 3443 c6 -2 18 -2 25 0 6 3 1 5 -13 5 -14 0 -19 -2 -12 -5z"/>
<path d="M3982 3430 c-1 -8 -2 -385 -2 -838 0 -780 -1 -823 -17 -818 -10 3
-54 15 -98 26 -44 12 -120 32 -170 46 -49 13 -96 24 -103 24 -26 0 -1 -18 30
-22 18 -3 106 -24 196 -48 90 -23 165 -40 168 -38 2 3 3 382 1 844 -1 461 -3
832 -5 824z"/>
<path d="M3985 1740 c3 -5 8 -10 11 -10 2 0 4 5 4 10 0 6 -5 10 -11 10 -5 0
-7 -4 -4 -10z"/>
<path d="M4142 2300 c0 -14 2 -19 5 -12 2 6 2 18 0 25 -3 6 -5 1 -5 -13z"/>
<path d="M2876 1901 c-4 -5 3 -7 14 -4 23 6 26 13 6 13 -8 0 -17 -4 -20 -9z"/>
<path d="M3518 1733 c7 -3 16 -2 19 1 4 3 -2 6 -13 5 -11 0 -14 -3 -6 -6z"/>
<path d="M3768 1663 c6 -2 18 -2 25 0 6 3 1 5 -13 5 -14 0 -19 -2 -12 -5z"/>
<path d="M3527 1229 c7 -7 15 -10 18 -7 3 3 -2 9 -12 12 -14 6 -15 5 -6 -5z"/>
<path d="M3580 1230 c-9 -6 -10 -10 -3 -10 6 0 15 5 18 10 8 12 4 12 -15 0z"/>
<path d="M2383 4097 c3 -9 2 -19 -3 -22 -18 -11 -10 -24 11 -20 21 4 52 36 43
44 -2 3 -11 -4 -19 -15 -13 -17 -14 -17 -15 -2 0 9 -5 20 -12 24 -8 5 -9 2 -5
-9z"/>
<path d="M2410 4008 c0 -6 -7 -19 -15 -28 -13 -14 -12 -16 4 -16 12 0 17 5 13
15 -3 9 -1 12 6 7 6 -3 15 2 21 12 8 14 6 18 -10 19 -10 1 -19 -3 -19 -9z"/>
</g>
</svg>
